<?xml version="1.0" encoding="UTF-8" standalone="no"?>
<!-- Generator: Adobe Illustrator 24.3.0, SVG Export Plug-In . SVG Version: 6.00 Build 0)  -->

<svg
   xmlns:dc="http://purl.org/dc/elements/1.1/"
   xmlns:cc="http://creativecommons.org/ns#"
   xmlns:rdf="http://www.w3.org/1999/02/22-rdf-syntax-ns#"
   xmlns:svg="http://www.w3.org/2000/svg"
   xmlns="http://www.w3.org/2000/svg"
   xmlns:sodipodi="http://sodipodi.sourceforge.net/DTD/sodipodi-0.dtd"
   xmlns:inkscape="http://www.inkscape.org/namespaces/inkscape"
   version="1.1"
   id="Layer_1"
   x="0px"
   y="0px"
   viewBox="0 0 230 230"
   xml:space="preserve"
   sodipodi:docname="rutopia-logo.svg"
   width="230"
   height="230"
   inkscape:version="0.92.5 (2060ec1f9f, 2020-04-08)"><metadata
   id="metadata25"><rdf:RDF><cc:Work
       rdf:about=""><dc:format>image/svg+xml</dc:format><dc:type
         rdf:resource="http://purl.org/dc/dcmitype/StillImage" /><dc:title></dc:title></cc:Work></rdf:RDF></metadata><defs
   id="defs23" /><sodipodi:namedview
   pagecolor="#ffffff"
   bordercolor="#666666"
   borderopacity="1"
   objecttolerance="10"
   gridtolerance="10"
   guidetolerance="10"
   inkscape:pageopacity="0"
   inkscape:pageshadow="2"
   inkscape:window-width="1920"
   inkscape:window-height="1016"
   id="namedview21"
   showgrid="false"
   inkscape:zoom="2.1469705"
   inkscape:cx="175.04237"
   inkscape:cy="80.389831"
   inkscape:window-x="1366"
   inkscape:window-y="0"
   inkscape:window-maximized="1"
   inkscape:current-layer="Layer_1" />
<style
   type="text/css"
   id="style2">
	.st0{fill:#EB602B;}
	.st1{fill:#FFFFFF;}
	.st2{fill:#DCDC50;}
</style>
<g
   id="g18"
   transform="translate(-280.65,-190.72)">
	<path
   class="st0"
   d="m 509.35,306.37 c 0,62.6 -50.75,113.35 -113.35,113.35 -62.6,0 -113.35,-41.11 -113.35,-103.71 0,-62.6 51.35,-131.64 113.35,-122.99 59.12,8.25 113.35,50.75 113.35,113.35 z"
   id="path4"
   inkscape:connector-curvature="0"
   style="fill:#eb602b" />
	<g
   id="g16">
		<g
   id="g12">
			<path
   class="st1"
   d="m 337.35,259.53 4.65,-5.86 c -1.33,-1 -2.35,-2.07 -3.04,-3.22 -0.69,-1.14 -1.04,-2.26 -1.04,-3.36 0,-1.72 0.73,-3.13 2.18,-4.25 1.45,-1.12 3.42,-1.68 5.9,-1.68 h 3.22 v 42.53 h 9.36 v -42.53 h 9.65 c 3.91,0 7.01,0.88 9.29,2.65 2.29,1.76 3.43,4.29 3.43,7.58 0,3.38 -1.25,5.89 -3.75,7.51 -2.5,1.62 -6.06,2.41 -10.69,2.36 l -1.14,7.51 9.29,8.86 c 1.57,1.67 3.63,3.23 6.18,4.68 2.55,1.45 5.33,2.18 8.33,2.18 2.62,0 5.15,-0.66 7.58,-1.97 1.28,-0.69 2.5,-1.58 3.67,-2.65 0.33,0.34 0.68,0.67 1.05,0.97 2.95,2.38 6.67,3.57 11.15,3.57 2.91,0 5.53,-0.5 7.86,-1.5 2.33,-1 4.24,-2.43 5.72,-4.29 0.95,1.91 2.37,3.35 4.25,4.33 1.88,0.98 4.04,1.46 6.47,1.46 3.19,0 6.17,-0.79 8.94,-2.36 2.76,-1.57 4.96,-3.74 6.58,-6.5 l -5.5,-4.65 c -2.72,3.72 -5.53,5.58 -8.43,5.58 -1.38,0 -2.47,-0.44 -3.25,-1.32 -0.79,-0.88 -1.18,-2.16 -1.18,-3.82 v -25.95 h -8.94 v 25.66 c -1.19,1.72 -2.61,3.01 -4.25,3.9 -1.64,0.88 -3.61,1.32 -5.9,1.32 -3.76,0 -6.21,-0.94 -7.33,-2.82 -1.12,-1.88 -1.68,-4.13 -1.68,-6.76 v -21.3 h -8.94 v 24.66 c 0,0.98 0.08,1.89 0.2,2.77 -2.26,2.44 -4.76,3.67 -7.49,3.67 -1.48,0 -2.85,-0.36 -4.11,-1.07 -1.26,-0.72 -2.63,-1.74 -4.11,-3.07 l -5.08,-4.58 c 4.53,-1.1 7.99,-3.04 10.4,-5.83 2.41,-2.79 3.61,-6.37 3.61,-10.76 0,-3.72 -0.87,-6.92 -2.61,-9.61 -1.74,-2.69 -4.22,-4.75 -7.43,-6.18 -3.22,-1.43 -7.04,-2.14 -11.47,-2.14 H 346 c -3.57,0 -6.62,0.62 -9.15,1.86 -2.53,1.24 -4.42,2.87 -5.68,4.9 -1.26,2.03 -1.89,4.23 -1.89,6.61 0,2.53 0.69,4.95 2.07,7.26 1.38,2.27 3.38,4.17 6,5.65 z"
   id="path6"
   inkscape:connector-curvature="0"
   style="fill:#ffffff" />
			<path
   class="st1"
   d="m 359.45,326.29 c 0.94,0.78 1.96,1.49 3.08,2.11 3.12,1.74 6.61,2.61 10.47,2.61 3.72,0 7.11,-0.82 10.19,-2.47 3.07,-1.64 5.52,-3.92 7.33,-6.83 1.81,-2.91 2.79,-6.17 2.93,-9.79 2.76,-0.14 5.43,-0.88 8.01,-2.22 2.57,-1.33 4.58,-3.1 6,-5.29 l -4.65,-5.29 c -1.24,1.57 -2.65,2.78 -4.22,3.61 -1.57,0.83 -3.12,1.25 -4.65,1.25 -0.62,0 -1.21,-0.07 -1.79,-0.21 -1.43,-3.81 -3.86,-6.86 -7.29,-9.15 -3.43,-2.29 -7.39,-3.43 -11.87,-3.43 -3.86,0 -7.35,0.87 -10.47,2.61 -3.12,1.74 -5.56,4.12 -7.33,7.15 -1.76,3.03 -2.65,6.4 -2.65,10.12 0,3.38 0.72,6.46 2.14,9.24 -0.51,0.48 -1.04,0.91 -1.6,1.27 -1.5,0.95 -3.11,1.43 -4.83,1.43 -1.86,0 -3.42,-0.54 -4.68,-1.61 -1.26,-1.07 -1.89,-2.8 -1.89,-5.18 v -16.87 h 7.43 v -7.43 h -7.43 v -8.22 h -8.94 v 8.22 h -4.43 v 7.43 h 4.43 v 18.3 c 0,4.48 1.36,7.82 4.07,10.01 2.72,2.19 6.08,3.29 10.08,3.29 3.43,0 6.55,-0.79 9.36,-2.36 1.2,-0.67 2.25,-1.43 3.2,-2.3 z m 5.44,-23.8 c 2.03,-2.14 4.73,-3.22 8.11,-3.22 2.19,0 4.12,0.48 5.79,1.43 0.52,3.96 2.29,6.96 5.29,9.01 0.05,0.29 0.07,0.74 0.07,1.36 0,3.62 -1.01,6.49 -3.04,8.61 -2.03,2.12 -4.73,3.18 -8.11,3.18 -3.38,0 -6.09,-1.05 -8.11,-3.15 -2.03,-2.1 -3.04,-4.96 -3.04,-8.58 0,-3.61 1.01,-6.5 3.04,-8.64 z"
   id="path8"
   inkscape:connector-curvature="0"
   style="fill:#ffffff" />
			<path
   class="st1"
   d="m 466.29,364.12 c -2.72,3.72 -5.53,5.58 -8.44,5.58 -1.38,0 -2.47,-0.44 -3.25,-1.32 -0.79,-0.88 -1.18,-2.16 -1.18,-3.82 v -26.02 h -8.94 l 0.21,4.36 c -1.52,-1.62 -3.38,-2.87 -5.58,-3.75 -2.19,-0.88 -4.5,-1.32 -6.93,-1.32 -3.19,0 -6.2,0.75 -9.01,2.25 -2.81,1.5 -5.08,3.76 -6.79,6.79 -1.72,3.03 -2.57,6.66 -2.57,10.9 0,3.07 0.5,5.88 1.49,8.44 -2.18,2.32 -4.41,3.5 -6.71,3.5 -1.38,0 -2.47,-0.44 -3.25,-1.32 -0.79,-0.88 -1.18,-2.16 -1.18,-3.82 v -26.02 h -8.94 v 27.43 c -0.84,0.92 -1.73,1.71 -2.68,2.31 -1.5,0.95 -3.04,1.43 -4.61,1.43 -0.95,0 -1.88,-0.14 -2.79,-0.43 2.53,-3.81 3.79,-8.05 3.79,-12.72 0,-3.76 -0.81,-7.07 -2.43,-9.9 -1.62,-2.84 -3.81,-5.02 -6.58,-6.54 -2.76,-1.53 -5.79,-2.29 -9.08,-2.29 -2.53,0 -4.92,0.48 -7.18,1.43 -2.26,0.95 -4.25,2.33 -5.97,4.15 l 0.07,-4.86 h -8.65 v 53.11 h 8.94 v -39.96 c 1.1,-1.81 2.56,-3.22 4.4,-4.22 1.83,-1 3.85,-1.5 6.04,-1.5 3.38,0 6.09,1.14 8.11,3.43 2.03,2.29 3.04,5.27 3.04,8.94 0,2.72 -0.6,5.15 -1.79,7.29 -1.48,-0.81 -2.86,-1.44 -4.15,-1.89 -1.29,-0.45 -2.6,-0.68 -3.93,-0.68 -2.38,0 -4.25,0.7 -5.61,2.11 -1.36,1.41 -2.04,3.11 -2.04,5.11 0,2.05 0.75,3.79 2.25,5.22 1.5,1.43 3.66,2.14 6.47,2.14 2.81,0 5.43,-0.74 7.86,-2.22 2.57,1.43 5.24,2.14 8.01,2.14 3.1,0 6.03,-0.75 8.79,-2.25 0.76,-0.41 1.47,-0.88 2.14,-1.39 0.28,0.31 0.57,0.61 0.9,0.89 2.22,1.88 5.04,2.82 8.47,2.82 3.15,0 6.11,-0.8 8.9,-2.39 1.29,-0.74 2.45,-1.6 3.49,-2.58 0.92,0.92 1.93,1.74 3.05,2.44 2.72,1.69 5.77,2.54 9.15,2.54 2.67,0 5.23,-0.57 7.68,-1.72 2.45,-1.14 4.47,-2.67 6.04,-4.58 0.81,2.05 2.19,3.61 4.15,4.68 1.95,1.07 4.22,1.61 6.79,1.61 3.15,0 6.11,-0.8 8.9,-2.39 2.79,-1.6 4.99,-3.75 6.61,-6.47 z m -21.81,-0.5 c -1,1.81 -2.44,3.24 -4.32,4.29 -1.88,1.05 -3.94,1.57 -6.18,1.57 -3.34,0 -5.98,-1.06 -7.93,-3.18 -1.95,-2.12 -2.93,-4.99 -2.93,-8.61 0,-3.72 1.04,-6.6 3.11,-8.65 2.07,-2.05 4.61,-3.07 7.61,-3.07 2.05,0 4.03,0.49 5.93,1.46 1.91,0.98 3.48,2.35 4.72,4.11 v 12.08 z"
   id="path10"
   inkscape:connector-curvature="0"
   style="fill:#ffffff" />
		</g>
		<path
   class="st2"
   d="m 414.86,321.73 c -2.04,-2.04 -4.23,-3.32 -6.57,-3.86 -2.35,-0.54 -4.59,-0.47 -6.72,0.19 -2.13,0.66 -3.94,1.73 -5.41,3.2 -1.35,1.35 -2.25,2.86 -2.71,4.5 1.45,-0.99 7.42,-4.91 14.01,-2.89 -5.36,0.25 -11.57,3.31 -14.14,6.77 0.31,1.2 0.97,2.31 1.99,3.33 2.21,2.21 4.95,2.82 8.25,1.84 3.3,-0.98 6.51,-3.03 9.65,-6.17 1.27,-1.27 2.52,-2.74 3.73,-4.41 0,0 0,0 0,0 -0.66,-0.94 -1.35,-1.77 -2.08,-2.5 z"
   id="path14"
   inkscape:connector-curvature="0"
   style="fill:#dcdc50" />
	</g>
</g>
</svg>